<svg width="20" height="20" viewBox="0 0 20 20" fill="none" xmlns="http://www.w3.org/2000/svg">
<path d="M7.95833 10L14.0833 16.125C14.2917 16.3333 14.3925 16.5764 14.3858 16.8542C14.3792 17.1319 14.2714 17.375 14.0625 17.5833C13.8536 17.7917 13.6106 17.8958 13.3333 17.8958C13.0561 17.8958 12.8131 17.7917 12.6042 17.5833L6.1875 11.1875C6.02083 11.0208 5.89583 10.8333 5.8125 10.625C5.72917 10.4167 5.6875 10.2083 5.6875 10C5.6875 9.79167 5.72917 9.58333 5.8125 9.375C5.89583 9.16667 6.02083 8.97917 6.1875 8.8125L12.6042 2.39584C12.8125 2.1875 13.0592 2.08667 13.3442 2.09334C13.6292 2.1 13.8756 2.20778 14.0833 2.41667C14.2911 2.62556 14.3953 2.86861 14.3958 3.14584C14.3964 3.42306 14.2922 3.66611 14.0833 3.875L7.95833 10Z" fill="black"/>
</svg>
