<svg width="21" height="20" viewBox="0 0 21 20" fill="none" xmlns="http://www.w3.org/2000/svg">
<path d="M10.5 18.3333V9.99999M10.5 9.99999L17.775 5.79999M10.5 9.99999L3.225 5.79999M18 13.34V6.65833C17.9995 6.36755 17.9222 6.08207 17.7758 5.83081C17.6295 5.57954 17.4193 5.37141 17.1667 5.22749L11.3333 1.88749C11.0794 1.74282 10.7922 1.66675 10.5 1.66675C10.2078 1.66675 9.92057 1.74282 9.66667 1.88749L3.83333 5.22749C3.3175 5.52333 3 6.06916 3 6.65916V13.3408C3 13.9317 3.3175 14.4767 3.83333 14.7717L9.66667 18.1117C9.92057 18.2563 10.2078 18.3324 10.5 18.3324C10.7922 18.3324 11.0794 18.2563 11.3333 18.1117L17.1667 14.7717C17.6825 14.4758 18 13.93 18 13.34Z" stroke="#7F7E8C" stroke-width="1.66667" stroke-linecap="round" stroke-linejoin="round"/>
</svg>
