<svg width="21" height="20" viewBox="0 0 21 20" fill="none" xmlns="http://www.w3.org/2000/svg">
<rect width="20" height="20" transform="translate(0.5)" fill="white"/>
<path d="M8.5004 11.0004C9.0525 11.0006 9.5004 11.4483 9.5004 12.0004V17.0004C9.50019 17.5178 9.10676 17.9441 8.60294 17.9955L8.5004 18.0004H3.5004L3.39786 17.9955C2.92758 17.9477 2.55337 17.5732 2.50528 17.103L2.5004 17.0004V12.0004C2.5004 11.4481 2.94811 11.0004 3.5004 11.0004H8.5004ZM17.5004 11.0004C18.0525 11.0006 18.5004 11.4483 18.5004 12.0004V17.0004C18.5002 17.5178 18.1068 17.9441 17.6029 17.9955L17.5004 18.0004H12.5004L12.3979 17.9955C11.9276 17.9477 11.5534 17.5732 11.5053 17.103L11.5004 17.0004V12.0004C11.5004 11.4481 11.9481 11.0004 12.5004 11.0004H17.5004ZM4.17032 16.3305H7.83047V12.6703H4.17032V16.3305ZM13.1703 16.3305H16.8305V12.6703H13.1703V16.3305ZM5.29239 1.25726C5.68291 0.866739 6.3169 0.866739 6.70743 1.25726L10.2426 4.79242L10.3119 4.86859C10.6107 5.23509 10.6107 5.76478 10.3119 6.13129L10.2426 6.20746L6.70743 9.74261L6.63126 9.81195C6.26474 10.1107 5.73506 10.1107 5.36856 9.81195L5.29239 9.74261L1.75723 6.20746C1.36671 5.81693 1.36671 5.18294 1.75723 4.79242L5.29239 1.25726ZM17.5004 2.00043C18.0525 2.00064 18.5004 2.44828 18.5004 3.00043V8.00043C18.5002 8.5178 18.1068 8.94406 17.6029 8.99554L17.5004 9.00043H12.5004L12.3979 8.99554C11.9276 8.94766 11.5534 8.57318 11.5053 8.10297L11.5004 8.00043V3.00043C11.5004 2.44814 11.9481 2.00043 12.5004 2.00043H17.5004ZM3.41153 5.50043L6.0004 8.08832L8.58829 5.50043L6.0004 2.91156L3.41153 5.50043ZM13.1703 7.33051H16.8305V3.67035H13.1703V7.33051Z" fill="#7F7E8C"/>
</svg>
