<svg width="21" height="20" viewBox="0 0 21 20" fill="none" xmlns="http://www.w3.org/2000/svg">
<path d="M12.274 16.8033C12.6881 16.8033 13.024 17.1391 13.024 17.5533C13.024 17.9674 12.6881 18.3032 12.274 18.3033H2.77399C2.35978 18.3033 2.024 17.9675 2.02399 17.5533C2.02399 17.1391 2.35977 16.8033 2.77399 16.8033H12.274ZM6.15387 1.70659L6.23004 1.72807L12.7203 4.09038L13.2418 4.28081L13.314 4.31303C13.6521 4.49731 13.6635 5.00134 13.3052 5.19194L12.8648 5.42631C12.756 5.48433 12.6726 5.58096 12.6304 5.69682L12.2037 6.86772L18.3179 9.09233L18.4117 9.13237C18.8678 9.35302 19.0926 9.8881 18.9156 10.3746L17.8892 13.1939C17.7002 13.7127 17.1259 13.9804 16.607 13.7915L10.4937 11.566L9.99469 12.938C9.95255 13.0539 9.95454 13.1811 10.0005 13.2955L10.1871 13.7583C10.3391 14.1348 10.0061 14.5136 9.62848 14.4371L9.55328 14.4165L2.54156 11.8638L2.4693 11.8316C2.13125 11.6473 2.11884 11.1423 2.47711 10.9517L2.91754 10.7173L2.97125 10.6831C3.05371 10.6247 3.11796 10.5437 3.15289 10.4478L5.78864 3.20659L5.81207 3.11772C5.82697 3.02781 5.81627 2.93479 5.7818 2.84917L5.59528 2.3853C5.44369 2.00916 5.77664 1.63061 6.15387 1.70659ZM7.19879 3.71928L4.56305 10.9605C4.55852 10.9729 4.55222 10.9853 4.54742 10.9976L8.57281 12.4634C8.57707 12.451 8.58007 12.4377 8.58453 12.4253L11.2203 5.18315C11.2248 5.17083 11.2311 5.15922 11.2359 5.14702L7.21051 3.6812C7.20625 3.69368 7.20327 3.70685 7.19879 3.71928ZM11.0123 10.1587L16.6509 12.2105L17.3345 10.3316L11.6968 8.27885L11.0123 10.1587Z" fill="#7F7E8C"/>
</svg>
