<svg width="12" height="13" viewBox="0 0 12 13" fill="none" xmlns="http://www.w3.org/2000/svg">
<path fill-rule="evenodd" clip-rule="evenodd" d="M6.35349 8.35349C6.25972 8.44722 6.13257 8.49988 5.99999 8.49988C5.86741 8.49988 5.74025 8.44722 5.64649 8.35349L2.81799 5.52499C2.77023 5.47887 2.73214 5.42369 2.70594 5.36269C2.67973 5.30169 2.66594 5.23608 2.66536 5.16969C2.66479 5.1033 2.67744 5.03746 2.70258 4.97601C2.72772 4.91456 2.76484 4.85874 2.81179 4.81179C2.85874 4.76484 2.91456 4.72772 2.97601 4.70258C3.03746 4.67744 3.1033 4.66479 3.16969 4.66536C3.23608 4.66594 3.30169 4.67973 3.36269 4.70594C3.42369 4.73214 3.47887 4.77023 3.52499 4.81799L5.99999 7.29299L8.47499 4.81799C8.56929 4.72691 8.69559 4.67651 8.82669 4.67765C8.95779 4.67879 9.08319 4.73137 9.1759 4.82408C9.2686 4.91678 9.32119 5.04219 9.32233 5.17329C9.32346 5.30439 9.27307 5.43069 9.18199 5.52499L6.35349 8.35349Z" fill="#7F7E8C"/>
</svg>
