<svg width="11" height="11" viewBox="0 0 11 11" fill="none" xmlns="http://www.w3.org/2000/svg">
<path d="M5.17596 1.50929C5.26191 1.42336 5.37847 1.37509 5.5 1.37509C5.62154 1.37509 5.73809 1.42336 5.82404 1.50929L8.57405 4.25929C8.58588 4.27119 8.59705 4.28374 8.6075 4.29687L8.61025 4.30054L8.61759 4.31062L8.63684 4.33766L8.64096 4.34454L8.64417 4.34912L8.65059 4.36149L8.66159 4.38166L8.6648 4.38945L8.66938 4.39862L8.67488 4.41329L8.68175 4.42887L8.68496 4.44033L8.68863 4.44949L8.69092 4.46141L8.69642 4.47837L8.69825 4.4912L8.701 4.50266L8.70238 4.51458L8.70513 4.5297L8.70605 4.54345L8.70742 4.55629V4.5682L8.70834 4.58333L8.70742 4.59845V4.61037L8.70605 4.62229L8.70513 4.63695L8.70284 4.65024L8.701 4.66399L8.69825 4.67499L8.69642 4.68874L8.69092 4.70479L8.68863 4.71716L8.68496 4.72587L8.68175 4.73779L8.67488 4.75291L8.66938 4.76849L8.6648 4.77674L8.66159 4.78499L8.65059 4.8047L8.64417 4.81754L8.64096 4.82166L8.63684 4.82899L8.61759 4.85558L8.61209 4.86429L8.61025 4.86566L8.6075 4.87024C8.58647 4.8963 8.56265 4.91996 8.53646 4.94083L8.53234 4.94358L8.52225 4.95091L8.49567 4.97016L8.48834 4.97429L8.48421 4.97749L8.47138 4.98391L8.45167 4.99491L8.44342 4.99812L8.43517 5.0027L8.41959 5.0082L8.40446 5.01508L8.39346 5.01783L8.38384 5.02195L8.37146 5.02424L8.35496 5.02974L8.34167 5.03158L8.33067 5.03433L8.31784 5.0357L8.30363 5.03845L8.28896 5.03937L8.27704 5.04074H8.26513L8.25 5.04166H2.75C2.34209 5.04166 2.13721 4.54804 2.42596 4.25929L5.17596 1.50929ZM8.25 5.95833L8.26513 5.95924H8.27704L8.28896 5.96062L8.30363 5.96154L8.31784 5.96429L8.33067 5.96566L8.34167 5.96841L8.35542 5.97024L8.37146 5.97574L8.38384 5.97804L8.39255 5.9817L8.40446 5.98491L8.41959 5.99179L8.43517 5.99729L8.44342 6.00187L8.45167 6.00508L8.47138 6.01608L8.48421 6.02249L8.48834 6.0257L8.49567 6.02983L8.51904 6.04679L8.53096 6.05458L8.53234 6.05641L8.53692 6.05916C8.56297 6.08019 8.58664 6.10401 8.6075 6.1302L8.61025 6.13433L8.61713 6.14349L8.63684 6.17099L8.64096 6.17833L8.64417 6.18245L8.65059 6.19529L8.66159 6.21499L8.66388 6.22095L8.66938 6.23149L8.67488 6.24708L8.68175 6.2622L8.68496 6.27412L8.68863 6.28329L8.69092 6.2952L8.69642 6.3117L8.69825 6.32499L8.701 6.33599L8.70238 6.34883L8.70513 6.36304L8.70605 6.3777L8.70742 6.38962V6.40154L8.70834 6.41666L8.70742 6.43179V6.4437L8.70605 6.45562L8.70513 6.47029L8.70238 6.48449L8.701 6.49733L8.69825 6.50833L8.69642 6.52208L8.69092 6.53812L8.68863 6.55049L8.68496 6.5592L8.68175 6.57112L8.67488 6.58624L8.66938 6.60183L8.6648 6.61008L8.66159 6.61833L8.65059 6.63804L8.64417 6.65087L8.64096 6.65499L8.63684 6.66233L8.61759 6.68891L8.61209 6.69762L8.61025 6.69899L8.6075 6.70358L8.57405 6.7407L5.82404 9.4907C5.73809 9.57663 5.62154 9.6249 5.5 9.6249C5.37847 9.6249 5.26191 9.57663 5.17596 9.4907L2.42596 6.7407C2.13721 6.45195 2.34163 5.95833 2.75 5.95833H8.25Z" fill="#7F7E8C"/>
</svg>
