<svg width="20" height="20" viewBox="0 0 20 20" fill="none" xmlns="http://www.w3.org/2000/svg">
<g clip-path="url(#clip0_22_2434)">
<rect width="20" height="20" fill="#F6F5FB"/>
<mask id="mask0_22_2434" style="mask-type:alpha" maskUnits="userSpaceOnUse" x="0" y="0" width="24" height="24">
<path d="M24 22.292V24H0V0H1.70801L24 22.292ZM24 19.4639L4.53613 0H24V19.4639Z" fill="#D9D9D9"/>
</mask>
<g mask="url(#mask0_22_2434)">
<path d="M10.0003 4.75C11.7433 4.7501 13.4759 5.62176 14.9739 6.75195C16.4591 7.87248 17.626 9.18078 18.222 9.90625C18.248 9.93798 18.2581 9.97071 18.2581 10C18.2581 10.0293 18.248 10.062 18.222 10.0938C17.626 10.8192 16.4591 12.1275 14.9739 13.248C13.4759 14.3782 11.7433 15.2499 10.0003 15.25C8.25671 15.25 6.52636 14.3777 5.03253 13.2471C3.55157 12.1261 2.39049 10.8173 1.79816 10.0928C1.77247 10.0613 1.763 10.0292 1.763 10C1.763 9.97081 1.77247 9.93871 1.79816 9.90723C2.39049 9.18266 3.55157 7.87388 5.03253 6.75293C6.52636 5.62229 8.25671 4.75 10.0003 4.75Z" stroke="#7F7E8C" stroke-width="1.5"/>
<circle cx="10" cy="10" r="2.25" stroke="#7F7E8C" stroke-width="1.5"/>
</g>
<rect x="1" y="2.12132" width="2" height="24" rx="1" transform="rotate(-45 1 2.12132)" fill="#7F7E8C"/>
</g>
<defs>
<clipPath id="clip0_22_2434">
<rect width="20" height="20" fill="white"/>
</clipPath>
</defs>
</svg>
