<svg width="21" height="20" viewBox="0 0 21 20" fill="none" xmlns="http://www.w3.org/2000/svg">
<path d="M17.1667 16.6666V7.60998L10.5 3.60998L3.83335 7.60998V16.6666H7.16669V14.375C7.16669 13.4909 7.51788 12.6431 8.143 12.018C8.76812 11.3928 9.61597 11.0416 10.5 11.0416C11.3841 11.0416 12.2319 11.3928 12.857 12.018C13.4822 12.6431 13.8334 13.4909 13.8334 14.375V16.6666H17.1667ZM12.1667 18.3333V14.375C12.1667 13.933 11.9911 13.509 11.6785 13.1965C11.366 12.8839 10.942 12.7083 10.5 12.7083C10.058 12.7083 9.63407 12.8839 9.32151 13.1965C9.00895 13.509 8.83335 13.933 8.83335 14.375V18.3333H3.83335C3.39133 18.3333 2.9674 18.1577 2.65484 17.8452C2.34228 17.5326 2.16669 17.1087 2.16669 16.6666V7.60998C2.16668 7.32217 2.24121 7.03926 2.38301 6.78881C2.52482 6.53836 2.72906 6.32889 2.97585 6.18081L9.64252 2.18081C9.90155 2.0254 10.1979 1.9433 10.5 1.9433C10.8021 1.9433 11.0985 2.0254 11.3575 2.18081L18.0242 6.18081C18.271 6.32889 18.4752 6.53836 18.617 6.78881C18.7588 7.03926 18.8334 7.32217 18.8334 7.60998V16.6666C18.8334 17.1087 18.6578 17.5326 18.3452 17.8452C18.0326 18.1577 17.6087 18.3333 17.1667 18.3333H12.1667Z" fill="#7A32DC"/>
</svg>
